<svg width="33" height="32" viewBox="0 0 33 32" fill="none" xmlns="http://www.w3.org/2000/svg">
<g clip-path="url(#clip0_1_723)">
<path d="M16.5001 20.2667C18.8565 20.2667 20.7667 18.3565 20.7667 16.0001C20.7667 13.6436 18.8565 11.7334 16.5001 11.7334C14.1436 11.7334 12.2334 13.6436 12.2334 16.0001C12.2334 18.3565 14.1436 20.2667 16.5001 20.2667Z" fill="#2A7AE4"/>
<path d="M12.5001 2.66663L10.0601 5.33329H5.83341C4.36675 5.33329 3.16675 6.53329 3.16675 7.99996V24C3.16675 25.4666 4.36675 26.6666 5.83341 26.6666H27.1667C28.6334 26.6666 29.8334 25.4666 29.8334 24V7.99996C29.8334 6.53329 28.6334 5.33329 27.1667 5.33329H22.9401L20.5001 2.66663H12.5001ZM16.5001 22.6666C12.8201 22.6666 9.83342 19.68 9.83342 16C9.83342 12.32 12.8201 9.33329 16.5001 9.33329C20.1801 9.33329 23.1667 12.32 23.1667 16C23.1667 19.68 20.1801 22.6666 16.5001 22.6666Z" fill="#2A7AE4"/>
</g>
<defs>
<clipPath id="clip0_1_723">
<rect width="32" height="32" fill="white" transform="translate(0.5)"/>
</clipPath>
</defs>
</svg>
